<svg width="36" height="36" viewBox="0 0 36 36" fill="none" xmlns="http://www.w3.org/2000/svg">
<g clip-path="url(#clip0_1_595)">
<path d="M6.375 2.90165e-06H29.625C30.4624 -0.00080659 31.2917 0.167763 32.0655 0.496065C32.8393 0.824367 33.5424 1.30595 34.1346 1.91327C34.7267 2.52058 35.1962 3.2417 35.5163 4.03535C35.8364 4.82899 36.0008 5.67959 36 6.53846V29.4615C36.0008 30.3204 35.8364 31.171 35.5163 31.9647C35.1962 32.7583 34.7267 33.4794 34.1346 34.0867C33.5424 34.694 32.8393 35.1756 32.0655 35.5039C31.2917 35.8322 30.4624 36.0008 29.625 36H6.375C5.5376 36.0008 4.70827 35.8322 3.93446 35.5039C3.16066 35.1756 2.45757 34.694 1.86544 34.0867C1.27331 33.4794 0.803757 32.7583 0.483663 31.9647C0.163569 31.171 -0.000786426 30.3204 2.82911e-06 29.4615V6.53846C-0.000786426 5.67959 0.163569 4.82899 0.483663 4.03535C0.803757 3.2417 1.27331 2.52058 1.86544 1.91327C2.45757 1.30595 3.16066 0.824367 3.93446 0.496065C4.70827 0.167763 5.5376 -0.00080659 6.375 2.90165e-06V2.90165e-06Z" fill="#000B1D"/>
<path d="M30.6302 25.3237C30.8336 24.9714 30.96 24.5744 30.96 24.218V11.8451C30.96 11.4886 30.8338 11.0918 30.6303 10.7395L18 18.0316L30.6302 25.3237Z" fill="#00599C"/>
<path d="M19.1222 32.3483L29.8375 26.1619C30.1462 25.9837 30.4267 25.6759 30.6301 25.3236L17.9999 18.0315L5.36963 25.3237C5.57301 25.6759 5.85364 25.9838 6.16222 26.1619L16.8775 32.3483C17.4948 32.7048 18.505 32.7048 19.1222 32.3483Z" fill="#004482"/>
<path d="M30.6304 10.7393C30.4269 10.387 30.1463 10.0792 29.8377 9.90101L19.1224 3.7146C18.5051 3.35816 17.4949 3.35816 16.8777 3.7146L6.16239 9.90101C5.54506 10.2574 5.04004 11.1322 5.04004 11.845V24.2179C5.04004 24.5744 5.16634 24.9713 5.3698 25.3236L18 18.0315L30.6304 10.7393Z" fill="#659AD2"/>
<path d="M17.9999 26.6716C13.2358 26.6716 9.35986 22.7957 9.35986 18.0316C9.35986 13.2675 13.2358 9.3916 17.9999 9.3916C21.074 9.3916 23.941 11.0459 25.482 13.7089L21.7428 15.8726C20.9716 14.5397 19.5373 13.7116 17.9999 13.7116C15.6178 13.7116 13.6799 15.6495 13.6799 18.0316C13.6799 20.4136 15.6178 22.3516 17.9999 22.3516C19.5374 22.3516 20.9718 21.5235 21.7431 20.1903L25.4823 22.354C23.9413 25.0172 21.0742 26.6716 17.9999 26.6716Z" fill="white"/>
<path d="M26.6403 17.5515H25.6802V16.5916H24.7203V17.5515H23.7603V18.5115H24.7203V19.4716H25.6802V18.5115H26.6403V17.5515Z" fill="white"/>
<path d="M30.2399 17.5515H29.2798V16.5916H28.3199V17.5515H27.3599V18.5115H28.3199V19.4716H29.2798V18.5115H30.2399V17.5515Z" fill="white"/>
</g>
<defs>
<clipPath id="clip0_1_595">
<rect width="36" height="36" fill="white"/>
</clipPath>
</defs>
</svg>
