<svg width="36" height="36" viewBox="0 0 36 36" fill="none" xmlns="http://www.w3.org/2000/svg">
<g clip-path="url(#clip0_7_123)">
<path d="M6.375 2.90166e-06H29.625C30.4624 -0.00080659 31.2917 0.167763 32.0655 0.496065C32.8393 0.824367 33.5424 1.30596 34.1346 1.91327C34.7267 2.52058 35.1962 3.2417 35.5163 4.03535C35.8364 4.82899 36.0008 5.67959 36 6.53846V29.4615C36.0008 30.3204 35.8364 31.171 35.5163 31.9647C35.1962 32.7583 34.7267 33.4794 34.1346 34.0867C33.5424 34.694 32.8393 35.1756 32.0655 35.5039C31.2917 35.8322 30.4624 36.0008 29.625 36H6.375C5.5376 36.0008 4.70827 35.8322 3.93446 35.5039C3.16066 35.1756 2.45757 34.694 1.86544 34.0867C1.27331 33.4794 0.803757 32.7583 0.483663 31.9647C0.163569 31.171 -0.000786426 30.3204 2.82911e-06 29.4615V6.53846C-0.000786426 5.67959 0.163569 4.82899 0.483663 4.03535C0.803757 3.2417 1.27331 2.52058 1.86544 1.91327C2.45757 1.30596 3.16066 0.824367 3.93446 0.496065C4.70827 0.167763 5.5376 -0.00080659 6.375 2.90166e-06V2.90166e-06Z" fill="#2965F1"/>
<path d="M8.81202 14.8407L9.16625 18.7935H18.0119V14.8407H8.81202ZM8.1001 6.84009L8.4594 10.7929H18.0119V6.84009H8.1001V6.84009ZM18.0119 25.1066L17.9946 25.1112L13.5924 23.9225L13.3109 20.77H9.34287L9.89661 26.9765L17.9937 29.2242L18.0119 29.2192V25.1066Z" fill="#EBEBEB"/>
<path d="M27.1864 14.8407L27.9 6.84009H17.9982V10.7929H23.568L23.2084 14.8407H17.9982V18.7935H22.8656L22.4067 23.92L17.998 25.1099V29.2223L26.1016 26.9765L26.161 26.3086L27.09 15.9021L27.1864 14.8407V14.8407Z" fill="white"/>
</g>
<defs>
<clipPath id="clip0_7_123">
<rect width="36" height="36" fill="white"/>
</clipPath>
</defs>
</svg>
