<svg width="29" height="29" viewBox="0 0 29 29" fill="none" xmlns="http://www.w3.org/2000/svg">
<g clip-path="url(#clip0_1008_2)">
<path d="M24.5497 5.02136C22.7014 4.17325 20.7193 3.5484 18.6469 3.19053C18.6091 3.18362 18.5714 3.20088 18.552 3.2354C18.2971 3.68879 18.0147 4.28027 17.817 4.74516C15.588 4.41146 13.3704 4.41146 11.1871 4.74516C10.9894 4.26993 10.6968 3.68879 10.4407 3.2354C10.4213 3.20203 10.3836 3.18477 10.3458 3.19053C8.27456 3.54726 6.29247 4.17211 4.44296 5.02136C4.42695 5.02826 4.41323 5.03978 4.40412 5.05473C0.644515 10.6715 -0.385398 16.1502 0.119843 21.561C0.122129 21.5875 0.136989 21.6128 0.157564 21.6289C2.63804 23.4505 5.04081 24.5564 7.39896 25.2894C7.4367 25.3009 7.47669 25.2871 7.50071 25.256C8.05853 24.4942 8.55578 23.691 8.98212 22.8464C9.00728 22.7969 8.98326 22.7382 8.93184 22.7186C8.14312 22.4194 7.3921 22.0547 6.66967 21.6404C6.61253 21.607 6.60796 21.5253 6.66052 21.4862C6.81255 21.3723 6.96462 21.2537 7.10978 21.134C7.13604 21.1122 7.17264 21.1076 7.20352 21.1214C11.9496 23.2883 17.0877 23.2883 21.7777 21.1214C21.8086 21.1064 21.8452 21.1111 21.8726 21.1329C22.0178 21.2526 22.1698 21.3723 22.323 21.4862C22.3756 21.5253 22.3722 21.607 22.315 21.6404C21.5926 22.0627 20.8416 22.4194 20.0517 22.7175C20.0003 22.7371 19.9774 22.7969 20.0026 22.8464C20.4381 23.6898 20.9353 24.4931 21.4828 25.2549C21.5057 25.2871 21.5468 25.3009 21.5846 25.2894C23.9542 24.5564 26.3569 23.4505 28.8374 21.6289C28.8591 21.6128 28.8728 21.5886 28.8751 21.5621C29.4798 15.3067 27.8623 9.8729 24.5874 5.05587C24.5794 5.03978 24.5657 5.02826 24.5497 5.02136ZM9.69086 18.2664C8.26198 18.2664 7.08462 16.9546 7.08462 15.3435C7.08462 13.7325 8.23915 12.4206 9.69086 12.4206C11.154 12.4206 12.3199 13.744 12.2971 15.3435C12.2971 16.9546 11.1425 18.2664 9.69086 18.2664ZM19.327 18.2664C17.8981 18.2664 16.7208 16.9546 16.7208 15.3435C16.7208 13.7325 17.8753 12.4206 19.327 12.4206C20.7901 12.4206 21.9561 13.744 21.9332 15.3435C21.9332 16.9546 20.7901 18.2664 19.327 18.2664Z" fill="#5865F2"/>
</g>
<defs>
<clipPath id="clip0_1008_2">
<rect width="29" height="29" fill="white"/>
</clipPath>
</defs>
</svg>
