<svg width="29" height="29" viewBox="0 0 29 29" fill="none" xmlns="http://www.w3.org/2000/svg">
<g clip-path="url(#clip0_910_21)">
<path fill-rule="evenodd" clip-rule="evenodd" d="M14.5004 0.604172C11.0581 0.605958 7.72869 1.82514 5.1075 4.04372C2.48631 6.2623 0.744252 9.3356 0.192819 12.7141C-0.358615 16.0926 0.31653 19.5559 2.09755 22.4849C3.87856 25.4138 6.6493 27.6174 9.91433 28.7015C10.6346 28.8352 10.906 28.3888 10.906 28.0092C10.906 27.6296 10.8916 26.529 10.8868 25.3257C6.85297 26.1971 6.0006 23.6235 6.0006 23.6235C5.34271 21.9523 4.39189 21.513 4.39189 21.513C3.07611 20.6202 4.49034 20.6369 4.49034 20.6369C5.94778 20.7395 6.71372 22.1242 6.71372 22.1242C8.00549 24.3278 10.1064 23.6904 10.9324 23.3179C11.062 22.3844 11.439 21.7494 11.8544 21.3889C8.63216 21.026 5.24666 19.7893 5.24666 14.2649C5.22669 12.8322 5.7614 11.4466 6.74013 10.3949C6.59127 10.032 6.09424 8.56616 6.88179 6.57507C6.88179 6.57507 8.09913 6.18831 10.87 8.05287C13.2466 7.40663 15.7541 7.40663 18.1308 8.05287C20.8992 6.18831 22.1141 6.57507 22.1141 6.57507C22.9041 8.56139 22.407 10.0273 22.2582 10.3949C23.24 11.4468 23.7758 12.8347 23.754 14.2697C23.754 19.8061 20.3613 21.026 17.1343 21.3817C17.6529 21.8306 18.1164 22.7067 18.1164 24.0532C18.1164 25.9823 18.0995 27.5341 18.0995 28.0092C18.0995 28.3935 18.3612 28.8424 19.096 28.7015C22.3614 27.6173 25.1324 25.4133 26.9134 22.4839C28.6944 19.5544 29.3692 16.0905 28.8171 12.7117C28.265 9.33293 26.5221 6.2596 23.9001 4.0414C21.278 1.82321 17.9478 0.604826 14.5052 0.604172H14.5004Z" fill="#191717"/>
<path d="M9.70024 24.1368C9.70024 24.2538 9.56578 24.354 9.39291 24.3564C9.22003 24.3588 9.07837 24.2633 9.07837 24.1463C9.07837 24.0293 9.21282 23.9291 9.3857 23.9267C9.55857 23.9243 9.70024 24.0174 9.70024 24.1368Z" fill="#191717"/>
<path d="M10.8048 23.953C10.8264 24.0699 10.7064 24.1917 10.5335 24.2204C10.3606 24.249 10.2093 24.1798 10.1877 24.0652C10.1661 23.9506 10.291 23.8264 10.4591 23.7954C10.6271 23.7644 10.7832 23.836 10.8048 23.953Z" fill="#191717"/>
<path d="M8.51417 24.0556C8.47815 24.1678 8.31488 24.2179 8.15161 24.1702C7.98833 24.1224 7.88029 23.9888 7.9115 23.8742C7.94271 23.7596 8.10839 23.707 8.27406 23.7596C8.43973 23.8121 8.54538 23.9386 8.51417 24.0556Z" fill="#191717"/>
<path d="M7.42654 23.5877C7.3473 23.676 7.18643 23.6521 7.05437 23.5328C6.92232 23.4134 6.89109 23.2511 6.97033 23.1651C7.04956 23.0792 7.21044 23.103 7.3473 23.22C7.48416 23.337 7.51057 23.5017 7.42654 23.5877V23.5877Z" fill="#191717"/>
<path d="M6.65093 22.7855C6.56209 22.8476 6.41081 22.7855 6.32678 22.6614C6.30354 22.6391 6.28506 22.6124 6.27244 22.5829C6.25981 22.5533 6.2533 22.5216 6.2533 22.4895C6.2533 22.4574 6.25981 22.4256 6.27244 22.3961C6.28506 22.3666 6.30354 22.3399 6.32678 22.3176C6.41561 22.2579 6.56689 22.3176 6.65093 22.4393C6.73496 22.5611 6.73737 22.7234 6.65093 22.7855V22.7855Z" fill="#191717"/>
<path d="M6.07944 21.9571C6.02972 21.982 5.97283 21.9889 5.91852 21.9768C5.8642 21.9646 5.81585 21.934 5.78171 21.8902C5.68807 21.79 5.66885 21.6515 5.74088 21.5894C5.81292 21.5274 5.94258 21.556 6.03623 21.6563C6.12987 21.7565 6.15147 21.895 6.07944 21.9571Z" fill="#191717"/>
<path d="M5.49114 21.3053C5.45992 21.3769 5.34467 21.3984 5.25103 21.3483C5.15739 21.2982 5.08777 21.2051 5.12138 21.131C5.155 21.057 5.26784 21.0379 5.36149 21.0881C5.45513 21.1382 5.52715 21.2337 5.49114 21.3053Z" fill="#191717"/>
</g>
<defs>
<clipPath id="clip0_910_21">
<rect width="29" height="29" fill="white"/>
</clipPath>
</defs>
</svg>
