<svg width="36" height="36" viewBox="0 0 36 36" fill="none" xmlns="http://www.w3.org/2000/svg">
<g clip-path="url(#clip0_1_405)">
<path d="M6.375 2.90165e-06H29.625C30.4624 -0.00080659 31.2917 0.167763 32.0655 0.496065C32.8393 0.824367 33.5424 1.30595 34.1346 1.91327C34.7267 2.52058 35.1962 3.2417 35.5163 4.03535C35.8364 4.82899 36.0008 5.67959 36 6.53846V29.4615C36.0008 30.3204 35.8364 31.171 35.5163 31.9647C35.1962 32.7583 34.7267 33.4794 34.1346 34.0867C33.5424 34.694 32.8393 35.1756 32.0655 35.5039C31.2917 35.8322 30.4624 36.0008 29.625 36H6.375C5.5376 36.0008 4.70827 35.8322 3.93446 35.5039C3.16066 35.1756 2.45757 34.694 1.86544 34.0867C1.27331 33.4794 0.803757 32.7583 0.483663 31.9647C0.163569 31.171 -0.000786426 30.3204 2.82911e-06 29.4615V6.53846C-0.000786426 5.67959 0.163569 4.82899 0.483663 4.03535C0.803757 3.2417 1.27331 2.52058 1.86544 1.91327C2.45757 1.30595 3.16066 0.824367 3.93446 0.496065C4.70827 0.167763 5.5376 -0.00080659 6.375 2.90165e-06V2.90165e-06Z" fill="#F7DF1E"/>
<path d="M24.244 28.1685C24.9692 29.3525 25.9126 30.2227 27.5812 30.2227C28.9829 30.2227 29.8783 29.5222 29.8783 28.5542C29.8783 27.3942 28.9583 26.9833 27.4155 26.3085L26.5698 25.9456C24.1286 24.9056 22.5069 23.6027 22.5069 20.8485C22.5069 18.3113 24.44 16.3799 27.4612 16.3799C29.612 16.3799 31.1583 17.1285 32.2726 19.0885L29.6383 20.7799C29.0583 19.7399 28.4326 19.3302 27.4612 19.3302C26.4703 19.3302 25.8423 19.9587 25.8423 20.7799C25.8423 21.7947 26.4709 22.2056 27.9223 22.8342L28.768 23.1965C31.6423 24.429 33.2652 25.6856 33.2652 28.5107C33.2652 31.5565 30.8726 33.225 27.6595 33.225C24.5178 33.225 22.488 31.7279 21.4949 29.7656L24.244 28.1685ZM12.2938 28.4616C12.8252 29.4045 13.3086 30.2016 14.4709 30.2016C15.5823 30.2016 16.2835 29.7667 16.2835 28.0759V16.573H19.6663V28.1216C19.6663 31.6245 17.6126 33.2187 14.6149 33.2187C11.9063 33.2187 10.3378 31.817 9.54004 30.1287L12.2938 28.4616Z" fill="black"/>
</g>
<defs>
<clipPath id="clip0_1_405">
<rect width="36" height="36" fill="white"/>
</clipPath>
</defs>
</svg>
