<svg width="29" height="29" viewBox="0 0 29 29" fill="none" xmlns="http://www.w3.org/2000/svg">
<g clip-path="url(#clip0_17_32)">
<path d="M26.8592 0H2.14076C1.573 0 1.02849 0.225544 0.627016 0.627016C0.225544 1.02849 0 1.573 0 2.14076V26.8592C0 27.427 0.225544 27.9715 0.627016 28.373C1.02849 28.7745 1.573 29 2.14076 29H26.8592C27.427 29 27.9715 28.7745 28.373 28.373C28.7745 27.9715 29 27.427 29 26.8592V2.14076C29 1.573 28.7745 1.02849 28.373 0.627016C27.9715 0.225544 27.427 0 26.8592 0ZM8.64361 24.7044H4.28354V10.8549H8.64361V24.7044ZM6.46056 8.93563C5.96598 8.93284 5.48331 8.78361 5.07347 8.50677C4.66363 8.22993 4.34497 7.83789 4.15773 7.38012C3.97048 6.92236 3.92303 6.41938 4.02137 5.93467C4.11971 5.44997 4.35943 5.00525 4.71027 4.65665C5.06111 4.30805 5.50736 4.0712 5.99269 3.97597C6.47802 3.88075 6.98068 3.93143 7.43723 4.12161C7.89379 4.31179 8.28378 4.63295 8.55798 5.04457C8.83218 5.45618 8.97831 5.93979 8.97792 6.43438C8.98258 6.7655 8.92054 7.09417 8.79547 7.40081C8.67041 7.70744 8.4849 7.98575 8.24998 8.21916C8.01507 8.45257 7.73557 8.6363 7.42814 8.75939C7.12071 8.88248 6.79164 8.94242 6.46056 8.93563ZM24.7144 24.7165H20.3564V17.1503C20.3564 14.9189 19.4078 14.2301 18.1834 14.2301C16.8905 14.2301 15.6217 15.2049 15.6217 17.2067V24.7165H11.2617V10.8649H15.4546V12.7842H15.511C15.9319 11.9323 17.406 10.4763 19.6556 10.4763C22.0883 10.4763 24.7165 11.9202 24.7165 16.1494L24.7144 24.7165Z" fill="#0A66C2"/>
</g>
<defs>
<clipPath id="clip0_17_32">
<rect width="29" height="29" fill="white"/>
</clipPath>
</defs>
</svg>
