<svg width="97" height="606" viewBox="0 0 97 606" fill="none" xmlns="http://www.w3.org/2000/svg">
<path d="M82 605.434L96.4338 591L82 576.566L67.5663 591L82 605.434ZM79.5001 -1.09278e-07L79.5 591L84.5 591L84.5001 1.09278e-07L79.5001 -1.09278e-07Z" fill="black"/>
<path d="M15 605.434L29.4337 591L15 576.566L0.566217 591L15 605.434ZM12.5 -1.09278e-07L12.5 591L17.5 591L17.5 1.09278e-07L12.5 -1.09278e-07Z" fill="black"/>
<path d="M50 557.321L67.3205 540L50 522.679L32.6795 540L50 557.321ZM47.0001 -1.31134e-07L47 540L53 540L53.0001 1.31134e-07L47.0001 -1.31134e-07Z" fill="black"/>
</svg>
