<svg width="36" height="36" viewBox="0 0 36 36" fill="none" xmlns="http://www.w3.org/2000/svg">
<g clip-path="url(#clip0_1_459)">
<path d="M6.375 2.90165e-06H29.625C30.4624 -0.00080659 31.2917 0.167763 32.0655 0.496065C32.8393 0.824367 33.5424 1.30595 34.1346 1.91327C34.7267 2.52058 35.1962 3.2417 35.5163 4.03535C35.8364 4.82899 36.0008 5.67959 36 6.53846V29.4615C36.0008 30.3204 35.8364 31.171 35.5163 31.9647C35.1962 32.7583 34.7267 33.4794 34.1346 34.0867C33.5424 34.694 32.8393 35.1756 32.0655 35.5039C31.2917 35.8322 30.4624 36.0008 29.625 36H6.375C5.5376 36.0008 4.70827 35.8322 3.93446 35.5039C3.16066 35.1756 2.45757 34.694 1.86544 34.0867C1.27331 33.4794 0.803757 32.7583 0.483663 31.9647C0.163569 31.171 -0.000786426 30.3204 2.82911e-06 29.4615V6.53846C-0.000786426 5.67959 0.163569 4.82899 0.483663 4.03535C0.803757 3.2417 1.27331 2.52058 1.86544 1.91327C2.45757 1.30595 3.16066 0.824367 3.93446 0.496065C4.70827 0.167763 5.5376 -0.00080659 6.375 2.90165e-06V2.90165e-06Z" fill="#000B1D"/>
<g clip-path="url(#clip1_1_459)">
<path d="M17.9999 20.3805C19.3821 20.3805 20.5026 19.2745 20.5026 17.9101C20.5026 16.5457 19.3821 15.4397 17.9999 15.4397C16.6176 15.4397 15.4971 16.5457 15.4971 17.9101C15.4971 19.2745 16.6176 20.3805 17.9999 20.3805Z" fill="#61DAFB"/>
<path fill-rule="evenodd" clip-rule="evenodd" d="M6.01771 16.3688C5.41046 16.9098 5.15535 17.4317 5.15535 17.9102C5.15535 18.3887 5.41046 18.9106 6.01771 19.4517C6.6249 19.9927 7.53636 20.5064 8.71245 20.9497C11.0606 21.8346 14.3441 22.3941 17.9999 22.3941C21.6558 22.3941 24.9392 21.8346 27.2874 20.9497C28.4635 20.5064 29.3749 19.9927 29.9821 19.4517C30.5894 18.9106 30.8445 18.3887 30.8445 17.9102C30.8445 17.4317 30.5894 16.9098 29.9821 16.3688C29.3749 15.8277 28.4635 15.314 27.2874 14.8708C24.9392 13.9858 21.6558 13.4263 17.9999 13.4263C14.3441 13.4263 11.0606 13.9858 8.71245 14.8708C7.53636 15.314 6.6249 15.8277 6.01771 16.3688ZM8.29511 13.7919C10.8075 12.845 14.2388 12.2715 17.9999 12.2715C21.761 12.2715 25.1923 12.845 27.7047 13.7919C28.9589 14.2646 30.0142 14.8415 30.7661 15.5115C31.518 16.1815 32.0145 16.9911 32.0145 17.9102C32.0145 18.8294 31.518 19.639 30.7661 20.3089C30.0142 20.979 28.9589 21.5559 27.7047 22.0286C25.1923 22.9754 21.761 23.549 17.9999 23.549C14.2388 23.549 10.8075 22.9754 8.29511 22.0286C7.04092 21.5559 5.98567 20.979 5.23372 20.3089C4.48182 19.639 3.98535 18.8294 3.98535 17.9102C3.98535 16.9911 4.48182 16.1815 5.23372 15.5115C5.98567 14.8415 7.04092 14.2646 8.29511 13.7919Z" fill="#61DAFB"/>
<path fill-rule="evenodd" clip-rule="evenodd" d="M13.3613 6.89678C12.5829 6.64823 11.9975 6.6911 11.5776 6.93035C11.1578 7.1696 10.8275 7.64861 10.6564 8.43825C10.4853 9.2278 10.4903 10.2638 10.6895 11.4908C11.0871 13.9405 12.2379 17.027 14.0659 20.1521C15.8938 23.2772 18.0264 25.8042 19.9769 27.369C20.9539 28.1527 21.8603 28.675 22.6386 28.9235C23.4169 29.1721 24.0024 29.1292 24.4222 28.8899C24.842 28.6507 25.1724 28.1717 25.3435 27.382C25.5146 26.5925 25.5095 25.5565 25.3104 24.3295C24.9128 21.8798 23.7619 18.7933 21.934 15.6682C20.106 12.5431 17.9734 10.0161 16.0229 8.45131C15.046 7.66759 14.1396 7.1453 13.3613 6.89678ZM16.7608 7.55511C18.8478 9.22933 21.0667 11.8757 22.9472 15.0908C24.8278 18.3058 26.0402 21.5258 26.4657 24.1468C26.678 25.4553 26.6995 26.6458 26.4876 27.6236C26.2757 28.6013 25.8136 29.4305 25.0072 29.8901C24.2008 30.3497 23.2422 30.3301 22.2784 30.0223C21.3146 29.7145 20.2808 29.1009 19.239 28.2652C17.152 26.591 14.9332 23.9446 13.0526 20.7295C11.1721 17.5145 9.95963 14.2945 9.53419 11.6734C9.32181 10.365 9.30036 9.17449 9.51225 8.19669C9.72412 7.21898 10.1862 6.38978 10.9926 5.93021C11.7991 5.47064 12.7576 5.49023 13.7214 5.79798C14.6852 6.10576 15.719 6.71935 16.7608 7.55511Z" fill="#61DAFB"/>
<path fill-rule="evenodd" clip-rule="evenodd" d="M25.3436 8.43818C25.1724 7.64854 24.8421 7.16954 24.4223 6.93028C24.0025 6.69103 23.417 6.64816 22.6387 6.89671C21.8604 7.14523 20.9539 7.66752 19.977 8.45124C18.0265 10.016 15.8939 12.543 14.066 15.6681C12.238 18.7932 11.0872 21.8797 10.6895 24.3295C10.4904 25.5564 10.4854 26.5924 10.6565 27.382C10.8276 28.1716 11.1579 28.6506 11.5777 28.8899C11.9976 29.1291 12.583 29.172 13.3614 28.9234C14.1396 28.6749 15.0461 28.1526 16.023 27.3689C17.9735 25.8042 20.1061 23.2771 21.9341 20.152C23.762 17.0269 24.9128 13.9404 25.3105 11.4907C25.5096 10.2637 25.5147 9.22773 25.3436 8.43818ZM26.4657 11.6734C26.0403 14.2945 24.8278 17.5144 22.9473 20.7294C21.0668 23.9445 18.8479 26.5909 16.7609 28.2651C15.7191 29.1009 14.6853 29.7145 13.7215 30.0222C12.7577 30.33 11.7992 30.3496 10.9927 29.89C10.1863 29.4305 9.7242 28.6013 9.51233 27.6235C9.30045 26.6457 9.32189 25.4552 9.53427 24.1468C9.95971 21.5257 11.1722 18.3058 13.0527 15.0907C14.9332 11.8757 17.1521 9.22926 19.2391 7.55504C20.2809 6.71928 21.3147 6.10569 22.2785 5.79791C23.2423 5.49016 24.2009 5.47058 25.0073 5.93014C25.8137 6.38971 26.2758 7.21891 26.4877 8.19663C26.6996 9.17443 26.6781 10.3649 26.4657 11.6734Z" fill="#61DAFB"/>
</g>
</g>
<defs>
<clipPath id="clip0_1_459">
<rect width="36" height="36" fill="white"/>
</clipPath>
<clipPath id="clip1_1_459">
<rect width="28.08" height="24.66" fill="white" transform="translate(3.95996 5.58008)"/>
</clipPath>
</defs>
</svg>
