<svg width="36" height="36" viewBox="0 0 36 36" fill="none" xmlns="http://www.w3.org/2000/svg">
<g clip-path="url(#clip0_7_170)">
<path d="M6.375 2.90165e-06H29.625C30.4624 -0.00080659 31.2917 0.167763 32.0655 0.496065C32.8393 0.824367 33.5424 1.30595 34.1346 1.91327C34.7267 2.52058 35.1962 3.2417 35.5163 4.03535C35.8364 4.82899 36.0008 5.67959 36 6.53846V29.4615C36.0008 30.3204 35.8364 31.171 35.5163 31.9647C35.1962 32.7583 34.7267 33.4794 34.1346 34.0867C33.5424 34.694 32.8393 35.1756 32.0655 35.5039C31.2917 35.8322 30.4624 36.0008 29.625 36H6.375C5.5376 36.0008 4.70827 35.8322 3.93446 35.5039C3.16066 35.1756 2.45757 34.694 1.86544 34.0867C1.27331 33.4794 0.803757 32.7583 0.483663 31.9647C0.163569 31.171 -0.000786426 30.3204 2.82911e-06 29.4615V6.53846C-0.000786426 5.67959 0.163569 4.82899 0.483663 4.03535C0.803757 3.2417 1.27331 2.52058 1.86544 1.91327C2.45757 1.30595 3.16066 0.824367 3.93446 0.496065C4.70827 0.167763 5.5376 -0.00080659 6.375 2.90165e-06V2.90165e-06Z" fill="#F0F0F0"/>
<path d="M17.7798 6.47998H7.2002V17.0592H17.7798V6.47998Z" fill="#0078D4"/>
<path d="M29.52 6.47998H18.9404V17.0592H29.52V6.47998Z" fill="#0078D4"/>
<path d="M17.7798 18.2207H7.2002V28.7999H17.7798V18.2207Z" fill="#0078D4"/>
<path d="M29.52 18.2207H18.9404V28.7999H29.52V18.2207Z" fill="#0078D4"/>
</g>
<defs>
<clipPath id="clip0_7_170">
<rect width="36" height="36" fill="white"/>
</clipPath>
</defs>
</svg>
